# xmcd
#
# Track frame offsets:
#  150
#  56886
#  92701
#  117132
#
# Disc length: 1807 seconds
#
# Revision: 0
# Processed by: cddbd v1.5.1PL0 Copyright (c) Steve Scherf et al.
# Submitted via: Collectorz.com Music Collector 6.9
#
DISCID=2f070d04
DTITLE=lyle lovett - Live At The Fred Kavli Theatre - Disc 2
DYEAR=1998
DGENRE=
TTITLE0=Texas Trilogy
TTITLE1=Step Inside This House
TTITLE2=Rollin' By
TTITLE3=I'll Come Knockin'
EXTD=
EXTT0=
EXTT1=
EXTT2=
EXTT3=
PLAYORDER=
